<?xml version="1.0" encoding="UTF-8"?>
<svg version="1.1" xmlns="http://www.w3.org/2000/svg" width="1201" height="1147">
<path d="M0 0 C99.8971875 -0.0309375 99.8971875 -0.0309375 201.8125 -0.0625 C222.79432861 -0.071604 243.77615723 -0.08070801 265.39379883 -0.09008789 C291.13415527 -0.09460449 291.13415527 -0.09460449 303.20732117 -0.09544373 C311.58911931 -0.09637049 319.97091068 -0.10001395 328.35270691 -0.10557556 C338.04962346 -0.11200014 347.74653359 -0.11482231 357.44345228 -0.11344495 C362.38991239 -0.11284979 367.33635818 -0.11370483 372.28281558 -0.11921513 C390.56612485 -0.13855061 408.83584463 -0.07373734 427.1125946 0.45631409 C427.81422837 0.47656019 428.51586213 0.49680629 429.23875753 0.51766592 C496.81094024 2.52328974 566.8095655 11.09620362 624 50 C624.6585498 50.44762695 625.31709961 50.89525391 625.99560547 51.35644531 C649.95469525 67.78728844 672.92775501 88.38971748 690 112 C690.48662109 112.66354492 690.97324219 113.32708984 691.47460938 114.01074219 C698.13815432 123.11927605 704.39162299 132.40130123 709.97949219 142.20996094 C710.95494815 143.92097604 711.94968831 145.62095394 712.9453125 147.3203125 C735.74709887 187.84656439 744.47036676 234.00785925 744.43237305 280.04882812 C744.44142844 282.32353229 744.4517646 284.59823165 744.46325684 286.8729248 C744.49054328 292.98414744 744.50008266 299.0952769 744.50611091 305.20655251 C744.51565874 311.71842528 744.54191289 318.23023363 744.56611633 324.74206543 C744.60521927 335.7297232 744.63308636 346.71737076 744.65356445 357.70507812 C744.67427101 368.80146136 744.70142181 379.89779646 744.73754883 390.99414062 C744.74084451 392.00866607 744.74084451 392.00866607 744.74420677 393.04368699 C744.75308282 395.76918407 744.76200669 398.49468098 744.77099048 401.22017771 C744.86788265 430.62553855 744.93393196 460.03091354 744.98194182 489.4363966 C744.99495964 497.32983662 745.01060224 505.22326748 745.02789307 513.11669922 C745.04903971 522.82628515 745.06456439 532.53586529 745.0752964 542.24546814 C745.07921456 545.65893828 745.08529186 549.0723926 745.09348106 552.4858551 C745.19775155 597.67688242 745.19775155 597.67688242 742.3125 619.25 C742.22696869 619.89610229 742.14143738 620.54220459 742.05331421 621.20788574 C734.91611935 674.45991397 713.34924332 724.65231473 679 766 C678.53948242 766.56203125 678.07896484 767.1240625 677.60449219 767.703125 C667.47333374 780.03550157 656.38532532 791.89676503 644 802 C643.25194092 802.61875 643.25194092 802.61875 642.48876953 803.25 C604.19378175 834.860652 560.10051737 856.69392054 512 869 C510.72310303 869.32991943 510.72310303 869.32991943 509.42041016 869.66650391 C470.47248559 879.56138204 430.8814671 880.31591452 390.96393716 880.23213124 C385.69722127 880.22335166 380.43050901 880.22642696 375.16378784 880.22793579 C366.07682158 880.22897564 356.98988443 880.22279437 347.90292549 880.21146011 C334.7653221 880.19508427 321.62773253 880.18998487 308.49012005 880.18748413 C287.1661756 880.1831258 265.84224662 880.16986769 244.51831055 880.15087891 C223.82560299 880.13247159 203.13289966 880.11833895 182.44018555 880.10986328 C181.16093488 880.10933783 179.88168422 880.10881239 178.56366838 880.10827102 C172.14492336 880.10566061 165.72617831 880.10313328 159.30743325 880.10064721 C106.20494176 880.07997279 53.10247892 880.04313471 0 880 C-0.33 829.18 -0.66 778.36 -1 726 C-13.375 721.545 -13.375 721.545 -26 717 C-30.43752984 715.21635754 -34.81685009 713.42435303 -39.1875 711.5 C-40.30495605 711.01644043 -41.42241211 710.53288086 -42.57373047 710.03466797 C-49.6081035 706.974635 -56.60259407 703.83000284 -63.58984375 700.6640625 C-65.26862183 699.90556744 -66.94741419 699.147104 -68.6262207 698.38867188 C-71.86572352 696.92467598 -75.09900789 695.44804257 -78.32885742 693.96289062 C-96.99174552 685.4426477 -114.64554506 680.70417463 -135 678 C-136.09020699 677.85507866 -136.09020699 677.85507866 -137.20243835 677.70722961 C-152.26469639 675.71055835 -167.34014302 673.81543501 -182.41699219 671.93261719 C-201.49157023 669.54730369 -220.52622106 667.07691351 -239.47265625 663.80859375 C-240.18777752 663.68550968 -240.90289879 663.56242561 -241.6396904 663.43561172 C-278.12596697 657.11025158 -278.12596697 657.11025158 -285 651 C-285.73828125 648.34375 -285.73828125 648.34375 -286 646 C-278.30689315 639.02812192 -269.4108716 638.28077894 -259.4921875 637.1328125 C-258.16288594 636.97076946 -256.83371535 636.80764878 -255.50466919 636.64352417 C-252.0023877 636.21305637 -248.49892456 635.79325691 -244.99493408 635.37695312 C-238.80500315 634.64128287 -232.61656367 633.89374375 -226.4296875 633.1328125 C-225.75531395 633.05017403 -225.0809404 632.96753555 -224.38613129 632.88239288 C-209.51302549 631.04739029 -194.75643378 628.60146577 -180 626 C-193.90740244 619.22733813 -207.84485535 612.52885072 -221.9079895 606.08474731 C-223.27342458 605.4583295 -224.63779687 604.82958839 -226.00094604 604.19821167 C-242.71314659 596.46750923 -259.67705515 590.42601734 -277.57421875 586.08984375 C-278.42047003 585.88131208 -279.26672131 585.67278042 -280.13861656 585.45792961 C-298.46971446 580.94603515 -316.94368364 577.22008383 -335.46920776 573.60754395 C-385.24849132 563.89153345 -385.24849132 563.89153345 -408.9375 557.75 C-409.76520905 557.53747589 -410.59291809 557.32495178 -411.44570923 557.10598755 C-429.26383202 552.49087023 -443.22077109 547.68731784 -455 533 C-456.39431504 530.21136993 -456.25660094 528.07921132 -456 525 C-450.31530669 521.21020446 -444.18186649 521.93433081 -437.6237793 522.27172852 C-436.63865451 522.31875443 -435.65352972 522.36578035 -434.63855267 522.4142313 C-418.69681367 523.21898686 -402.77258604 524.36664273 -386.84857392 525.45867991 C-382.03726093 525.78804127 -377.22573252 526.11422721 -372.41423035 526.44081116 C-364.33616753 526.98954605 -356.25824451 527.54029899 -348.18041992 528.0925293 C-336.88472901 528.8647412 -325.58878602 529.63321396 -314.29279101 530.40096271 C-305.40998678 531.00484076 -296.52725476 531.60977975 -287.64453125 532.21484375 C-286.24789981 532.30995841 -286.24789981 532.30995841 -284.8230536 532.40699458 C-278.56923786 532.83296326 -272.31547389 533.25968365 -266.06176758 533.68725586 C-265.22612172 533.74436147 -264.39047586 533.80146708 -263.5295074 533.86030316 C-251.58880683 534.67698368 -239.64973081 535.51351502 -227.71334553 536.39132595 C-218.99975545 537.02520103 -210.29564628 537.45736834 -201.5625 537.6875 C-200.49570007 537.71594498 -200.49570007 537.71594498 -199.40734863 537.7449646 C-167.34150612 538.56797427 -136.23215501 534.25245855 -105 527 C-103.31874023 526.61497314 -103.31874023 526.61497314 -101.60351562 526.22216797 C-81.90836245 521.61236038 -62.95660868 515.03168316 -43.92089844 508.25463867 C-33.7309191 504.63273525 -23.52539234 501.13990112 -13.18359375 497.97265625 C-12.20463638 497.67129257 -11.22567902 497.36992889 -10.21705627 497.05943298 C-9.31325729 496.78724442 -8.40945831 496.51505585 -7.47827148 496.23461914 C-6.28620338 495.87528038 -6.28620338 495.87528038 -5.0700531 495.50868225 C-3 495 -3 495 0 495 C0 331.65 0 168.3 0 0 Z M118 118 C118 232.18 118 346.36 118 464 C132.19936121 460.8445864 146.39261992 457.67210908 160.56958008 454.41870117 C163.07298019 453.84604289 165.5772226 453.27705487 168.08227539 452.71166992 C171.76143347 451.88073767 175.43753759 451.03729851 179.11328125 450.19140625 C180.2146492 449.94540176 181.31601715 449.69939728 182.45075989 449.44593811 C201.7018959 444.96919081 217.18986374 435.88027948 232.98681641 424.43847656 C234.79918991 423.14348448 236.62854762 421.88591861 238.48046875 420.6484375 C249.21298962 413.45856359 258.72229657 405.06526876 268.1875 396.3125 C284.63807083 381.10990351 302.7498142 367.85971391 324.125 360.625 C324.79168701 360.39852783 325.45837402 360.17205566 326.14526367 359.9387207 C338.27885756 356.09359824 350.12468679 354.49711676 362.77905273 354.60888672 C364.93342595 354.62496959 367.08591724 354.60892799 369.24023438 354.58984375 C388.08665055 354.55904808 405.63795937 357.91486979 419.6953125 371.48828125 C425.46243977 377.77347249 430.2097751 384.62058913 434.5625 391.9375 C438.68247033 398.54087047 443.42155662 401.49854343 450.87158203 403.5378418 C455.3382693 404.50772468 459.8985314 404.88234887 464.4375 405.375 C491.0184133 408.51380997 491.0184133 408.51380997 501 416 C500.83764648 417.87792969 500.83764648 417.87792969 500 420 C497.71118164 421.09863281 497.71118164 421.09863281 494.59765625 421.953125 C493.41574707 422.28376953 492.23383789 422.61441406 491.01611328 422.95507812 C489.67811975 423.30610638 488.33937937 423.65429721 487 424 C486.30042175 424.18264404 485.60084351 424.36528809 484.88006592 424.5534668 C481.04386237 425.55158349 477.20297075 426.53029626 473.35961914 427.50048828 C458.1595104 431.34658072 443.19405808 435.18987579 429 442 C428.30986816 442.32709961 427.61973633 442.65419922 426.90869141 442.99121094 C406.7066711 452.72884123 393.93021676 466.08904098 386.29638672 487.21240234 C380.04721634 505.27108072 377.87987198 523.34195655 376.38702393 542.28970337 C375.06311847 558.79437616 372.56873017 575.07104463 365 590 C364.45988281 591.06734375 363.91976562 592.1346875 363.36328125 593.234375 C351.10644665 615.94934729 332.34509929 635.66888783 314.25 653.875 C313.74355957 654.38611328 313.23711914 654.89722656 312.71533203 655.42382812 C298.56004924 669.51969255 282.35070989 681.18175314 265 691 C264.13133301 691.49387207 263.26266602 691.98774414 262.36767578 692.49658203 C247.77711543 700.69320454 232.93308461 706.91600812 217 712 C215.99098633 712.32387695 214.98197266 712.64775391 213.94238281 712.98144531 C197.73982373 718.08579444 181.22172795 721.95665969 164.6875 725.8125 C163.68500214 726.04942566 162.68250427 726.28635132 161.64962769 726.53045654 C147.14623331 729.94230396 132.80379562 732.26279046 118 734 C118 743.24 118 752.48 118 762 C160.82034901 762.0679981 203.64068492 762.12162507 246.46107734 762.15319599 C251.53093642 762.15694754 256.60079538 762.16083056 261.6706543 762.16479492 C263.18445733 762.16597532 263.18445733 762.16597532 264.72884224 762.16717956 C281.0113811 762.18018856 297.29388778 762.20381721 313.57640763 762.23145839 C330.31767938 762.25963864 347.05893441 762.27620275 363.80022889 762.28226548 C374.10781641 762.28635593 384.4153129 762.29921455 394.72287235 762.3237494 C401.81732108 762.33976292 408.91172364 762.34436559 416.00618907 762.34050413 C420.08265527 762.3386065 424.15896391 762.34124833 428.23540115 762.35761642 C455.97197059 762.46322184 482.98335823 760.90437002 510 754 C510.75635742 753.81211914 511.51271484 753.62423828 512.29199219 753.43066406 C557.75534091 741.94712573 599.12137682 712.11572799 623.41259766 671.95385742 C646.55174044 632.42684249 655.41226589 585.1158808 646 540 C645.83371094 539.20239258 645.66742187 538.40478516 645.49609375 537.58300781 C637.30888168 500.02796281 615.38621212 466.94452618 583 446 C564.43082002 434.13316336 542.69962293 425.87652401 521 422 C521 421.34 521 420.68 521 420 C522.01815796 419.53327881 522.01815796 419.53327881 523.05688477 419.05712891 C536.37401041 412.91423134 549.22930198 406.80230726 561 398 C561.91910156 397.32066406 562.83820313 396.64132812 563.78515625 395.94140625 C594.62613625 371.91360298 614.30648458 337.86184243 619.62890625 299.09765625 C624.6774344 256.95573179 615.61934012 215.87590938 589.1875 182 C577.96789253 168.35748119 565.83560525 156.7089282 551 147 C550.07445312 146.36578125 549.14890625 145.7315625 548.1953125 145.078125 C502.32443905 114.96442182 436.80418139 117.8024124 384.13947269 117.88392727 C380.4995507 117.88838627 376.85962957 117.88682674 373.21970558 117.88610935 C366.19722813 117.88558392 359.17476378 117.89013958 352.15228967 117.89661068 C344.00622902 117.90388835 335.86017593 117.90460963 327.71411133 117.90539551 C306.26773885 117.91061882 284.82136922 117.92458009 263.375 117.9375 C191.414375 117.9684375 191.414375 117.9684375 118 118 Z " fill="#353333" transform="translate(456,0)"/>
<path d="M0 0 C12.14373825 -0.34898225 24.28626695 -0.61477842 36.43401527 -0.77718258 C42.07631283 -0.85517063 47.71515827 -0.96075414 53.35546875 -1.1315918 C58.80879435 -1.29571446 64.2588218 -1.38448677 69.71442795 -1.42315865 C71.78553558 -1.45067877 73.85648104 -1.50442698 75.92616653 -1.58595085 C92.92558959 -2.2283431 92.92558959 -2.2283431 99.27459717 3.19308472 C102.34200554 6.25230138 105.0051677 9.53822672 107.54926682 13.03971672 C109.86714544 16.17171836 112.43941678 19.06487549 115 22 C117.9056322 20.60761641 119.87744347 19.33827803 122.05859375 16.953125 C122.88520508 16.0559375 122.88520508 16.0559375 123.72851562 15.140625 C124.57446289 14.20476562 124.57446289 14.20476562 125.4375 13.25 C125.99759766 12.6415625 126.55769531 12.033125 127.13476562 11.40625 C127.68712891 10.80296875 128.23949219 10.1996875 128.80859375 9.578125 C129.63073364 8.68504639 129.63073364 8.68504639 130.46948242 7.77392578 C132.01528925 6.0535271 132.01528925 6.0535271 133.1965332 4.22216797 C134.83376273 1.83220141 136.18810108 0.18269398 139.07446289 -0.46679688 C141.51602656 -0.5905102 143.87280026 -0.52519462 146.3125 -0.375 C147.14845703 -0.34792969 147.98441406 -0.32085938 148.84570312 -0.29296875 C150.89825247 -0.22259563 152.94946591 -0.11498322 155 0 C153.72235639 2.78170507 152.37579118 4.89330001 150.26953125 7.109375 C149.72063232 7.68961426 149.1717334 8.26985352 148.60620117 8.86767578 C147.71831909 9.79942627 147.71831909 9.79942627 146.8125 10.75 C146.20188721 11.41628418 145.59127441 12.08256836 144.9621582 12.76904297 C141.72773572 16.27159772 138.46850193 19.50702357 134.7734375 22.5234375 C127.80564112 28.49911954 123.83710535 33.04245683 122.8359375 42.4609375 C122.36263898 49.64933401 122.61627757 56.81127591 123 64 C117.72 64 112.44 64 107 64 C107.07863281 62.05738281 107.15726563 60.11476563 107.23828125 58.11328125 C108.19208074 42.29496016 108.19208074 42.29496016 101.6340332 28.71606445 C99.35665015 26.73706441 97.02779744 24.89338849 94.56054688 23.15673828 C92.41798603 21.56858852 90.80455244 19.6859187 89.125 17.625 C86.42834149 14.44655635 83.55095628 11.52864175 80.578125 8.609375 C78.54491458 6.53590299 76.7524026 4.31317144 75 2 C74.67 5.3 74.34 8.6 74 12 C64.43 12 54.86 12 45 12 C45 29.16 45 46.32 45 64 C39.72 64 34.44 64 29 64 C29 46.84 29 29.68 29 12 C19.43 12 9.86 12 0 12 C0 8.04 0 4.08 0 0 Z " fill="#343333" transform="translate(992,1083)"/>
<path d="M0 0 C14.6334375 -0.0928125 14.6334375 -0.0928125 29.5625 -0.1875 C32.63119385 -0.21481201 35.6998877 -0.24212402 38.86157227 -0.27026367 C41.30484626 -0.27902885 43.74812465 -0.28667271 46.19140625 -0.29296875 C47.45110229 -0.30831665 48.71079834 -0.32366455 50.00866699 -0.33947754 C56.39316962 -0.34137901 61.45471858 -0.34032399 67 3 C71.05249853 9.01338491 70.66949673 15.96123709 70 23 C68.73846279 26.72153477 68.10698345 28.30418183 64.8125 30.375 C64.214375 30.58125 63.61625 30.7875 63 31 C64.175625 31.86625 64.175625 31.86625 65.375 32.75 C68.01055484 35.00904701 68.86190954 35.82477959 70 39 C70.21844365 41.85678899 70.3246867 44.58337583 70.3125 47.4375 C70.32861328 48.18837891 70.34472656 48.93925781 70.36132812 49.71289062 C70.36531618 54.24730998 70.14283665 57.47311 67 61 C60.36042959 64.89248637 53.71894351 64.38468285 46.19140625 64.29296875 C45.01896362 64.28994751 43.846521 64.28692627 42.6385498 64.28381348 C38.27977635 64.26817649 33.92112887 64.2262927 29.5625 64.1875 C19.806875 64.125625 10.05125 64.06375 0 64 C0 42.88 0 21.76 0 0 Z M16 11 C16 15.95 16 20.9 16 26 C20.60821727 26.02300275 25.21623387 26.04290222 29.82446289 26.05493164 C31.39087602 26.05994856 32.9572845 26.06676362 34.52368164 26.07543945 C36.78012239 26.08762094 39.03650102 26.09325481 41.29296875 26.09765625 C41.98899704 26.10281754 42.68502533 26.10797882 43.40214539 26.11329651 C47.04708404 26.11371344 50.49080805 26.04374066 54 25 C55.26237731 22.47524538 55.09856404 20.68799534 55.0625 17.875 C55.05347656 16.96492187 55.04445313 16.05484375 55.03515625 15.1171875 C55.02355469 14.41851563 55.01195312 13.71984375 55 13 C51.19717566 10.49083052 47.33837961 10.74392116 42.953125 10.8046875 C42.18192322 10.8075174 41.41072144 10.81034729 40.6161499 10.81326294 C38.16060668 10.82442987 35.7054324 10.84952771 33.25 10.875 C31.58203653 10.88503432 29.91406732 10.89415939 28.24609375 10.90234375 C24.16392103 10.92435775 20.082023 10.95886333 16 11 Z M16 37 C16 41.95 16 46.9 16 52 C21.23273331 52.04935824 26.46533176 52.08569949 31.69824219 52.10986328 C33.47919067 52.11993431 35.26012257 52.13359185 37.04101562 52.15087891 C39.59769783 52.17507913 42.15416185 52.18647184 44.7109375 52.1953125 C45.50994476 52.20563507 46.30895203 52.21595764 47.13217163 52.22659302 C49.0895722 52.22699226 51.04643077 52.12241069 53 52 C55.25075045 50.16888152 55.25075045 50.16888152 55.265625 47.46875 C55.25789063 45.99921875 55.25789063 45.99921875 55.25 44.5 C55.25515625 43.5203125 55.2603125 42.540625 55.265625 41.53125 C55.25075045 38.83111848 55.25075045 38.83111848 53 37 C50.20315203 36.82474945 47.5067192 36.76856811 44.7109375 36.8046875 C43.89251373 36.8075174 43.07408997 36.81034729 42.23086548 36.81326294 C39.61209607 36.82447468 36.99366636 36.84958071 34.375 36.875 C32.60156743 36.88502853 30.82812951 36.8941546 29.0546875 36.90234375 C24.70299374 36.92441722 20.3515545 36.95895356 16 37 Z " fill="#353333" transform="translate(421,936)"/>
<path d="M0 0 C14.6334375 -0.0928125 14.6334375 -0.0928125 29.5625 -0.1875 C32.63119385 -0.21481201 35.6998877 -0.24212402 38.86157227 -0.27026367 C41.30484626 -0.27902885 43.74812465 -0.28667271 46.19140625 -0.29296875 C47.45110229 -0.30831665 48.71079834 -0.32366455 50.00866699 -0.33947754 C61.46860883 -0.34289061 61.46860883 -0.34289061 67 3 C70.70479083 8.55718625 70.57647961 15.48372149 70 22 C69.0974973 25.61664684 68.03258229 28.32144592 64.8125 30.4375 C64.214375 30.623125 63.61625 30.80875 63 31 C64.175625 31.86625 64.175625 31.86625 65.375 32.75 C68.01055484 35.00904701 68.86190954 35.82477959 70 39 C70.21844365 41.85678899 70.3246867 44.58337583 70.3125 47.4375 C70.32861328 48.18837891 70.34472656 48.93925781 70.36132812 49.71289062 C70.36531618 54.24730998 70.14283665 57.47311 67 61 C60.36042959 64.89248637 53.71894351 64.38468285 46.19140625 64.29296875 C45.01896362 64.28994751 43.846521 64.28692627 42.6385498 64.28381348 C38.27977635 64.26817649 33.92112887 64.2262927 29.5625 64.1875 C19.806875 64.125625 10.05125 64.06375 0 64 C0 42.88 0 21.76 0 0 Z M16 11 C16 15.95 16 20.9 16 26 C20.60821727 26.02300275 25.21623387 26.04290222 29.82446289 26.05493164 C31.39087602 26.05994856 32.9572845 26.06676362 34.52368164 26.07543945 C36.78012239 26.08762094 39.03650102 26.09325481 41.29296875 26.09765625 C41.98899704 26.10281754 42.68502533 26.10797882 43.40214539 26.11329651 C47.04708404 26.11371344 50.49080805 26.04374066 54 25 C55.18306728 22.63386544 55.13354608 21.13219264 55.125 18.5 C55.12757813 17.7059375 55.13015625 16.911875 55.1328125 16.09375 C55.13277996 13.94081466 55.13277996 13.94081466 54 12 C50.30459598 10.76819866 46.89696622 10.87587888 43.05078125 10.90234375 C41.89185616 10.90446617 41.89185616 10.90446617 40.70951843 10.90663147 C38.24380611 10.91222534 35.77818485 10.92477667 33.3125 10.9375 C31.63997527 10.94251579 29.96744912 10.94707856 28.29492188 10.95117188 C24.19657954 10.96219276 20.09830521 10.97945316 16 11 Z M16 37 C16 41.95 16 46.9 16 52 C21.23273331 52.04935824 26.46533176 52.08569949 31.69824219 52.10986328 C33.47919067 52.11993431 35.26012257 52.13359185 37.04101562 52.15087891 C39.59769783 52.17507913 42.15416185 52.18647184 44.7109375 52.1953125 C45.50994476 52.20563507 46.30895203 52.21595764 47.13217163 52.22659302 C49.0895722 52.22699226 51.04643077 52.12241069 53 52 C55.25075045 50.16888152 55.25075045 50.16888152 55.265625 47.46875 C55.25789062 45.99921875 55.25789062 45.99921875 55.25 44.5 C55.25515625 43.5203125 55.2603125 42.540625 55.265625 41.53125 C55.25075045 38.83111848 55.25075045 38.83111848 53 37 C50.20315203 36.82474945 47.5067192 36.76856811 44.7109375 36.8046875 C43.89251373 36.8075174 43.07408997 36.81034729 42.23086548 36.81326294 C39.61209607 36.82447468 36.99366636 36.84958071 34.375 36.875 C32.60156743 36.88502853 30.82812951 36.8941546 29.0546875 36.90234375 C24.70299374 36.92441722 20.3515545 36.95895356 16 37 Z " fill="#353333" transform="translate(879,936)"/>
<path d="M0 0 C14.6334375 -0.0928125 14.6334375 -0.0928125 29.5625 -0.1875 C32.63119385 -0.21481201 35.6998877 -0.24212402 38.86157227 -0.27026367 C41.30484626 -0.27902885 43.74812465 -0.28667271 46.19140625 -0.29296875 C47.45110229 -0.30831665 48.71079834 -0.32366455 50.00866699 -0.33947754 C61.46860883 -0.34289061 61.46860883 -0.34289061 67 3 C70.53684488 8.30526732 70.18203374 14.25515944 70.1875 20.4375 C70.19974609 21.16259766 70.21199219 21.88769531 70.22460938 22.63476562 C70.23994071 28.32269034 69.8319353 33.74061313 66.125 38.3125 C61.35953775 40.88584962 56.33051948 41.35387643 51 42 C56.66299075 47.13164841 62.4531737 52.05100295 68.421875 56.82421875 C71.10122653 59.08542906 73.55508138 61.48912134 76 64 C55.86877196 65.6360713 55.86877196 65.6360713 49.52734375 62.01953125 C47.09790938 59.47459287 45.05801594 56.84956054 43 54 C41.60132915 52.68655283 40.16547497 51.41102507 38.6875 50.1875 C36.32090542 48.21300393 34.73376034 46.63979341 32.875 44.125 C27.88341595 40.43556831 22.07244207 41.17025539 16 41 C16 48.59 16 56.18 16 64 C10.72 64 5.44 64 0 64 C0 42.88 0 21.76 0 0 Z M16 12 C16 17.61 16 23.22 16 29 C20.76912207 29.04595514 25.53747342 29.08576684 30.30664062 29.10986328 C31.92841192 29.11991023 33.55016516 29.13355015 35.171875 29.15087891 C37.50525374 29.17518493 39.8383926 29.18649613 42.171875 29.1953125 C42.89493835 29.20563507 43.61800171 29.21595764 44.36297607 29.22659302 C48.07798039 29.22741782 50.84581045 29.06235471 54 27 C54.05386629 24.87527424 54.09273071 22.75016348 54.125 20.625 C54.14820313 19.44164062 54.17140625 18.25828125 54.1953125 17.0390625 C54.32866229 13.88846183 54.32866229 13.88846183 52 12 C49.27514272 11.82482253 46.65340638 11.76850867 43.9296875 11.8046875 C42.73534592 11.80893234 42.73534592 11.80893234 41.51687622 11.81326294 C38.96943237 11.8244736 36.42233789 11.84957938 33.875 11.875 C32.14974465 11.88502867 30.42448381 11.89415472 28.69921875 11.90234375 C24.46590238 11.92271582 20.23334305 11.96186177 16 12 Z " fill="#353333" transform="translate(1020,936)"/>
<path d="M0 0 C1.0625148 -0.00287018 2.1250296 -0.00574036 3.21974182 -0.00869751 C5.46136001 -0.01073423 7.70299613 -0.00523187 9.94458008 0.00732422 C13.36385126 0.02336686 16.78193755 0.0074697 20.20117188 -0.01171875 C22.38411718 -0.00973594 24.56706175 -0.00589148 26.75 0 C27.76686386 -0.00607269 28.78372772 -0.01214539 29.83140564 -0.0184021 C35.61383663 0.03849126 39.88591069 0.48773603 44.94140625 3.3984375 C47.52480052 7.81520836 48.31338878 11.31467622 47.94140625 16.3984375 C43.38649011 18.60242918 38.91234449 18.98690013 33.94140625 19.3984375 C33.94140625 17.0884375 33.94140625 14.7784375 33.94140625 12.3984375 C20.74140625 12.3984375 7.54140625 12.3984375 -6.05859375 12.3984375 C-6.05859375 16.6884375 -6.05859375 20.9784375 -6.05859375 25.3984375 C-4.01551025 25.37487183 -4.01551025 25.37487183 -1.93115234 25.35083008 C3.13421692 25.29642793 8.19956046 25.2620498 13.26513672 25.23364258 C15.4552851 25.21857944 17.64540344 25.19812491 19.83544922 25.17211914 C22.98803128 25.13562761 26.14021362 25.11868611 29.29296875 25.10546875 C30.26819489 25.08998489 31.24342102 25.07450104 32.24819946 25.05854797 C37.57335744 25.05723712 41.35000131 25.37173503 45.94140625 28.3984375 C50.9588427 35.40391481 49.66097859 47.00164492 48.58984375 55.03515625 C47.82210641 58.55503676 46.99245242 61.3237261 43.94140625 63.3984375 C40.87594264 64.4202587 38.7510094 64.53703609 35.53955078 64.55957031 C33.88235519 64.57398163 33.88235519 64.57398163 32.19168091 64.58868408 C30.9979184 64.59293396 29.80415588 64.59718384 28.57421875 64.6015625 C26.73390579 64.61011261 26.73390579 64.61011261 24.85641479 64.61883545 C22.25894026 64.62828794 19.66145372 64.63482041 17.06396484 64.63867188 C13.08930576 64.64838156 9.11516278 64.67940528 5.140625 64.7109375 C2.61849266 64.71746711 0.09635661 64.72271775 -2.42578125 64.7265625 C-3.6154953 64.7389093 -4.80520935 64.7512561 -6.03097534 64.76397705 C-7.69762741 64.7594754 -7.69762741 64.7594754 -9.39794922 64.75488281 C-10.37263153 64.75852844 -11.34731384 64.76217407 -12.35153198 64.76593018 C-15.59630563 64.32544132 -17.441432 63.34535784 -20.05859375 61.3984375 C-22.73860421 56.59290149 -23.3931558 52.862951 -23.05859375 47.3984375 C-21.28909763 46.89372553 -19.51794152 46.39483065 -17.74609375 45.8984375 C-16.75996094 45.62 -15.77382813 45.3415625 -14.7578125 45.0546875 C-12.05859375 44.3984375 -12.05859375 44.3984375 -9.05859375 44.3984375 C-9.05859375 47.0384375 -9.05859375 49.6784375 -9.05859375 52.3984375 C5.46140625 52.3984375 19.98140625 52.3984375 34.94140625 52.3984375 C34.94140625 47.7784375 34.94140625 43.1584375 34.94140625 38.3984375 C33.57935059 38.41414795 32.21729492 38.4298584 30.81396484 38.44604492 C25.74859558 38.50044707 20.68325204 38.5348252 15.61767578 38.56323242 C13.4275274 38.57829556 11.23740906 38.59875009 9.04736328 38.62475586 C5.89478122 38.66124739 2.74259888 38.67818889 -0.41015625 38.69140625 C-1.38538239 38.70689011 -2.36060852 38.72237396 -3.36538696 38.73832703 C-8.69834675 38.7396398 -12.45711439 38.41580853 -17.05859375 35.3984375 C-21.22969715 30.89294184 -20.5017237 25.18191365 -20.43359375 19.3984375 C-20.44519531 18.41359375 -20.45679688 17.42875 -20.46875 16.4140625 C-20.43075084 7.0409363 -20.43075084 7.0409363 -17.05859375 3.3984375 C-11.53315981 -0.24809297 -6.38794003 -0.03807287 0 0 Z " fill="#343333" transform="translate(499.05859375,1082.6015625)"/>
<path d="M0 0 C9.77625 -0.061875 19.5525 -0.12375 29.625 -0.1875 C32.70279785 -0.21481201 35.7805957 -0.24212402 38.95166016 -0.27026367 C41.39745695 -0.27902742 43.84325812 -0.28667162 46.2890625 -0.29296875 C47.55387451 -0.30831665 48.81868652 -0.32366455 50.12182617 -0.33947754 C51.33926514 -0.33984009 52.5567041 -0.34020264 53.81103516 -0.34057617 C54.86360504 -0.34723801 55.91617493 -0.35389984 57.00064087 -0.36076355 C60.55678018 0.06696964 62.93773892 1.16778359 66 3 C69.97384305 8.29007377 69.44673282 14.23008589 69.375 20.5625 C69.38660156 21.59052734 69.39820313 22.61855469 69.41015625 23.67773438 C69.37333923 33.14584545 69.37333923 33.14584545 66 37 C62.85843275 40.03912484 60.02128735 40.58394853 55.75 41.1875 C54.67234375 41.34605469 53.5946875 41.50460937 52.484375 41.66796875 C51.66453125 41.77753906 50.8446875 41.88710937 50 42 C57.2936895 48.30578343 64.5777009 54.57721081 72.20703125 60.4765625 C74 62 74 62 75 64 C56.1115325 66.22131112 56.1115325 66.22131112 49.66552734 62.73876953 C45.66445031 59.56390768 42.50016647 55.72055506 39.37792969 51.70117188 C37.53222045 49.4224862 35.434169 47.56366569 33.1875 45.6875 C32.58292969 45.17574219 31.97835937 44.66398437 31.35546875 44.13671875 C30.90816406 43.76160156 30.46085938 43.38648438 30 43 C29.505 42.505 29.505 42.505 29 42 C26.65012738 41.76472227 24.29443961 41.58613583 21.9375 41.4375 C19.648125 41.293125 17.35875 41.14875 15 41 C15 48.59 15 56.18 15 64 C10.05 64 5.1 64 0 64 C0 42.88 0 21.76 0 0 Z M15 12 C15 17.61 15 23.22 15 29 C19.91182354 29.06892892 24.8219646 29.1286424 29.73388672 29.16479492 C31.40419201 29.17986754 33.07445781 29.2003292 34.74462891 29.22631836 C37.14756013 29.26276973 39.54996744 29.27974131 41.953125 29.29296875 C43.0705307 29.31619453 43.0705307 29.31619453 44.21051025 29.33988953 C47.40579308 29.34092323 49.64396608 29.19533515 52.47192383 27.64379883 C54.65308797 25.29745306 54.5011053 23.6548228 54.4375 20.5 C54.43621094 19.5409375 54.43492187 18.581875 54.43359375 17.59375 C54.17742168 15.05504569 54.17742168 15.05504569 52.98339844 13.35620117 C49.8442715 11.20974005 46.49875583 11.63348581 42.83203125 11.70703125 C42.03721848 11.71127609 41.2424057 11.71552094 40.42350769 11.71989441 C37.88615979 11.7366807 35.34960762 11.77433176 32.8125 11.8125 C31.09180835 11.82754695 29.37110424 11.84123534 27.65039062 11.85351562 C23.43304094 11.8840319 19.21741057 11.94275008 15 12 Z " fill="#353333" transform="translate(865,1083)"/>
<path d="M0 0 C11.7871875 -0.0928125 11.7871875 -0.0928125 23.8125 -0.1875 C27.49950073 -0.22846802 27.49950073 -0.22846802 31.26098633 -0.27026367 C33.24299633 -0.27903817 35.2250118 -0.28667982 37.20703125 -0.29296875 C38.70961487 -0.3159906 38.70961487 -0.3159906 40.24255371 -0.33947754 C51.25296459 -0.34349545 61.48560695 1.94457555 69.71875 9.59765625 C77.02460681 17.45861492 77.60731415 25.62809839 77.28125 35.9296875 C76.81988873 44.35337539 73.8890494 50.91154712 68 57 C59.5252841 63.91312229 50.36876055 64.29485646 39.84375 64.1953125 C38.82958008 64.19329834 37.81541016 64.19128418 36.77050781 64.18920898 C33.01362529 64.17881378 29.25680768 64.15089164 25.5 64.125 C17.085 64.08375 8.67 64.0425 0 64 C0 42.88 0 21.76 0 0 Z M16 12 C16 25.2 16 38.4 16 52 C37.14976509 53.50189348 37.14976509 53.50189348 56 46 C60.93178154 40.53505289 61.3505218 36.24300324 61.28125 29.08203125 C60.76386465 23.4123501 58.61259789 19.70218666 54.75 15.625 C46.94452837 11.01267586 38.27173107 11.76001095 29.5 11.875 C22.8175 11.936875 22.8175 11.936875 16 12 Z " fill="#353333" transform="translate(1117,936)"/>
<path d="M0 0 C1.0832959 -0.00287018 2.1665918 -0.00574036 3.28271484 -0.00869751 C5.56543503 -0.01073242 7.84817288 -0.0052428 10.13085938 0.00732422 C13.61368001 0.0233853 17.09534022 0.00745525 20.578125 -0.01171875 C22.80208588 -0.00973622 25.02604604 -0.00589234 27.25 0 C28.28560059 -0.00607269 29.32120117 -0.01214539 30.38818359 -0.0184021 C36.23223069 0.0381101 40.48630962 0.53163456 45.625 3.3984375 C50.01435821 8.77894111 48.88839483 15.82332213 48.625 22.3984375 C43.17038831 23.78373571 38.25781599 24.6381318 32.625 24.3984375 C32.625 20.4384375 32.625 16.4784375 32.625 12.3984375 C20.085 12.3984375 7.545 12.3984375 -5.375 12.3984375 C-5.375 25.5984375 -5.375 38.7984375 -5.375 52.3984375 C7.165 52.3984375 19.705 52.3984375 32.625 52.3984375 C32.625 47.7784375 32.625 43.1584375 32.625 38.3984375 C38.22974681 38.91579874 43.2658575 39.68807287 48.625 41.3984375 C49.20097305 56.77905127 49.20097305 56.77905127 45.625 62.3984375 C42.45723118 64.4694887 39.84745333 64.65961413 36.10961914 64.68896484 C34.45253685 64.7081044 34.45253685 64.7081044 32.76197815 64.72763062 C31.57337692 64.72985626 30.3847757 64.73208191 29.16015625 64.734375 C27.32196571 64.7443602 27.32196571 64.7443602 25.44664001 64.75454712 C22.85514833 64.76467178 20.26363058 64.7693642 17.67211914 64.76904297 C13.70610674 64.77341698 9.74120619 64.80974356 5.77539062 64.84765625 C3.25781631 64.85352418 0.7402367 64.85749373 -1.77734375 64.859375 C-2.96392075 64.87374603 -4.15049774 64.88811707 -5.37303162 64.90292358 C-13.52893278 64.85762476 -13.52893278 64.85762476 -17.53735352 62.68212891 C-21.92391314 57.2308364 -21.68233643 52.048547 -21.67578125 45.3125 C-21.68006638 44.33735443 -21.6843515 43.36220886 -21.68876648 42.35751343 C-21.69449953 40.298246 -21.6950176 38.23895833 -21.69067383 36.1796875 C-21.68751797 33.04131215 -21.71097194 29.90388364 -21.73632812 26.765625 C-21.73860174 24.76041785 -21.73930433 22.75520818 -21.73828125 20.75 C-21.747491 19.8174942 -21.75670074 18.8849884 -21.76618958 17.92422485 C-21.72694716 12.35319844 -21.38150989 8.172513 -18.375 3.3984375 C-12.59756729 -0.31386629 -6.70826046 -0.03933679 0 0 Z " fill="#353333" transform="translate(686.375,1082.6015625)"/>
<path d="M0 0 C0.97814163 -0.00960754 1.95628326 -0.01921509 2.96406555 -0.02911377 C4.01514999 -0.03336365 5.06623444 -0.03761353 6.14916992 -0.04199219 C7.23671066 -0.04769226 8.3242514 -0.05339233 9.44474792 -0.05926514 C11.74538197 -0.06870727 14.0460295 -0.07524599 16.34667969 -0.07910156 C19.85595444 -0.08880172 23.36464208 -0.11983102 26.8737793 -0.15136719 C29.11140604 -0.15789815 31.34903695 -0.16314826 33.58666992 -0.16699219 C35.15418755 -0.18551239 35.15418755 -0.18551239 36.75337219 -0.20440674 C42.63744226 -0.18652631 46.89765826 0.26278123 52.06713867 3.16113281 C56.45649688 8.54163642 55.3305335 15.58601744 55.06713867 22.16113281 C49.61252698 23.54643102 44.69995466 24.40082711 39.06713867 24.16113281 C39.06713867 20.20113281 39.06713867 16.24113281 39.06713867 12.16113281 C26.52713867 12.16113281 13.98713867 12.16113281 1.06713867 12.16113281 C1.06713867 25.36113281 1.06713867 38.56113281 1.06713867 52.16113281 C13.60713867 52.16113281 26.14713867 52.16113281 39.06713867 52.16113281 C39.06713867 47.54113281 39.06713867 42.92113281 39.06713867 38.16113281 C41.07807617 38.34675781 41.07807617 38.34675781 43.12963867 38.53613281 C44.26079102 38.64054688 44.26079102 38.64054688 45.41479492 38.74707031 C48.72893563 39.26444721 51.85846391 40.19499574 55.06713867 41.16113281 C55.14874687 43.53683824 55.20791089 45.90969122 55.25463867 48.28613281 C55.27977539 48.95128906 55.30491211 49.61644531 55.33081055 50.30175781 C55.40028117 55.02576027 54.67416545 58.21251248 52.06713867 62.16113281 C48.91380184 64.20563442 46.35785513 64.41783578 42.64355469 64.43579102 C41.01650352 64.45008904 41.01650352 64.45008904 39.35658264 64.4646759 C38.18985519 64.4637645 37.02312775 64.46285309 35.82104492 64.46191406 C34.61778061 64.46619919 33.4145163 64.47048431 32.17478943 64.47489929 C29.63036732 64.48064179 27.0859288 64.48114345 24.54150391 64.47680664 C20.64807128 64.47364777 16.75539916 64.49710439 12.86206055 64.52246094 C10.3900563 64.52473402 7.91805 64.52543738 5.44604492 64.52441406 C4.28134171 64.53362381 3.11663849 64.54283356 1.91664124 64.55232239 C0.8287883 64.5460936 -0.25906464 64.53986481 -1.37988281 64.53344727 C-2.33378403 64.53407669 -3.28768524 64.53470612 -4.27049255 64.53535461 C-7.47932277 64.08432235 -9.33469165 63.07535436 -11.93286133 61.16113281 C-15.18811129 55.5773423 -15.36229072 50.6431173 -15.29614258 44.28222656 C-15.29664108 43.3519313 -15.29713959 42.42163605 -15.2976532 41.46315002 C-15.29532289 39.50576632 -15.28565635 37.54837904 -15.26904297 35.59106445 C-15.24540682 32.60438107 -15.24849573 29.61858945 -15.25512695 26.63183594 C-15.2495507 24.72362752 -15.24244116 22.81542284 -15.23364258 20.90722656 C-15.23455399 20.01958115 -15.23546539 19.13193573 -15.23640442 18.21739197 C-15.17059608 12.43296795 -14.83880127 7.51179208 -11.05786133 2.84863281 C-7.60280938 0.10491509 -4.31402577 0.03432126 0 0 Z " fill="#353333" transform="translate(700.932861328125,935.8388671875)"/>
<path d="M0 0 C21.45 0 42.9 0 65 0 C65 3.96 65 7.92 65 12 C48.5 12 32 12 15 12 C15 16.29 15 20.58 15 25 C24.57 25 34.14 25 44 25 C44 28.96 44 32.92 44 37 C34.43 37 24.86 37 15 37 C15 41.95 15 46.9 15 52 C31.83 52 48.66 52 66 52 C66 55.96 66 59.92 66 64 C44.22 64 22.44 64 0 64 C0 42.88 0 21.76 0 0 Z " fill="#353334" transform="translate(576,1083)"/>
<path d="M0 0 C5.28 0 10.56 0 16 0 C16.33 7.92 16.66 15.84 17 24 C19.866875 21.89625 22.73375 19.7925 25.6875 17.625 C26.63939209 16.93728516 27.59128418 16.24957031 28.57202148 15.54101562 C32.3440109 12.80272379 36.01449519 10.11043776 39.34765625 6.84375 C46.5562454 0.09115505 51.56943353 -0.76858515 61.3125 -0.625 C64.88361569 -0.49687096 68.43900436 -0.29663555 72 0 C67.97019391 4.30745021 63.55575479 7.65941391 58.75 11.0625 C57.97092285 11.6196167 57.1918457 12.1767334 56.38916016 12.75073242 C53.93019669 14.50632257 51.46593699 16.25422101 49 18 C48.17532227 18.58458984 47.35064453 19.16917969 46.50097656 19.77148438 C41.67428921 23.19094634 36.84015808 26.59963578 32 30 C35.69862626 34.13609818 40.1677091 36.94772286 44.75 40 C51.90407999 44.82237985 58.89224902 49.80214666 65.74707031 55.04101562 C68.59626633 57.21544196 71.44372185 59.32258473 74.44921875 61.27734375 C75.29097656 61.84582031 76.13273438 62.41429687 77 63 C77 63.33 77 63.66 77 64 C64.79722988 65.40369288 53.09784302 66.64507545 42.72460938 59.13916016 C39.47196828 56.49173622 36.30884303 53.76836914 33.20703125 50.94580078 C29.91073965 48.03966759 26.36110275 45.55701177 22.75 43.0625 C20.8525 41.721875 18.955 40.38125 17 39 C16.67 47.25 16.34 55.5 16 64 C10.72 64 5.44 64 0 64 C0 42.88 0 21.76 0 0 Z " fill="#353333" transform="translate(784,936)"/>
<path d="M0 0 C4.95 0 9.9 0 15 0 C15 17.16 15 34.32 15 52 C28.53 52 42.06 52 56 52 C56 34.84 56 17.68 56 0 C61.28 0 66.56 0 72 0 C72.07429269 7.56223413 72.12867057 15.12425461 72.16479492 22.68676758 C72.17985844 25.2580943 72.2003132 27.82939543 72.22631836 30.40063477 C72.26280761 34.10178962 72.27975121 37.802604 72.29296875 41.50390625 C72.30845261 42.64896133 72.32393646 43.79401642 72.33988953 44.97377014 C72.34116408 51.05194433 72.23578693 55.75819249 69 61 C65.3531057 63.68090183 62.77096393 64.37731533 58.27929688 64.38818359 C56.59229675 64.40236832 56.59229675 64.40236832 54.87121582 64.4168396 C53.6659021 64.41076691 52.46058838 64.40469421 51.21875 64.3984375 C49.34938782 64.40274277 49.34938782 64.40274277 47.44226074 64.40713501 C44.13637526 64.40969647 40.83091455 64.39764581 37.52508545 64.38085938 C35.50177517 64.37500514 33.47885523 64.38083936 31.45556641 64.39111328 C27.56394356 64.40964708 23.67289694 64.40740023 19.78125 64.3984375 C17.97327942 64.40754654 17.97327942 64.40754654 16.12878418 64.4168396 C14.44178406 64.40265488 14.44178406 64.40265488 12.72070312 64.38818359 C11.73428833 64.38579681 10.74787354 64.38341003 9.73156738 64.38095093 C6.42762802 63.92017563 4.61770681 63.06446522 2 61 C0.00451509 57.41769111 -0.2453574 54.34666484 -0.22705078 50.29174805 C-0.22689972 49.17096359 -0.22674866 48.05017914 -0.22659302 46.89543152 C-0.21627045 45.6963063 -0.20594788 44.49718109 -0.1953125 43.26171875 C-0.1924826 42.02581497 -0.18965271 40.78991119 -0.18673706 39.51655579 C-0.17745218 36.24335003 -0.15950633 32.97034356 -0.1373291 29.69720459 C-0.11680817 26.35219152 -0.10789268 23.00716974 -0.09765625 19.66210938 C-0.07561791 13.1079852 -0.04109903 6.55403125 0 0 Z " fill="#353434" transform="translate(763,1083)"/>
<path d="M0 0 C5.28 0 10.56 0 16 0 C17.4540625 2.54460938 17.4540625 2.54460938 18.9375 5.140625 C19.8980127 6.82140137 19.8980127 6.82140137 20.87792969 8.53613281 C22.30603266 11.0352714 23.7337209 13.53464633 25.16113281 16.03417969 C28.56214172 21.98890097 31.96498078 27.9425234 35.38000488 33.88922119 C36.82457979 36.40497226 38.26756642 38.92163265 39.71044922 41.43835449 C40.39683257 42.6345282 41.08399188 43.83025703 41.77197266 45.0255127 C45.36616784 51.27049279 48.8660084 57.51042143 52 64 C49.13667945 64.32723663 46.31057446 64.56189536 43.4375 64.75 C42.63763672 64.85054687 41.83777344 64.95109375 41.01367188 65.0546875 C38.25227441 65.18993962 36.53618152 65.14356258 34 64 C32.56665039 61.31933594 32.56665039 61.31933594 31.1875 58.03125 C29.03370999 53.6968292 29.03370999 53.6968292 25.01931763 51.30822754 C18.91272231 50.27918108 12.72822167 50.56955027 6.5625 50.75 C4.66734441 50.76198338 2.77214634 50.76854971 0.87695312 50.76953125 C-3.75154197 50.78369286 -8.37331478 50.87184225 -13 51 C-13.3079248 51.94633301 -13.61584961 52.89266602 -13.93310547 53.86767578 C-15.21308723 57.62560851 -16.96290379 60.60483965 -19 64 C-24.28 64 -29.56 64 -35 64 C-29.06283686 51.77642883 -22.54644338 39.9822322 -15.81005859 28.18359375 C-12.57429188 22.49241517 -9.3823548 16.776705 -6.1875 11.0625 C-5.57052246 9.9597876 -4.95354492 8.8570752 -4.31787109 7.72094727 C-2.87814384 5.14754255 -1.43900334 2.57380958 0 0 Z M7 14 C4.99670983 17.81078003 2.99792024 21.62390225 1 25.4375 C0.42765625 26.52611328 -0.1446875 27.61472656 -0.734375 28.73632812 C-1.54648437 30.28803711 -1.54648437 30.28803711 -2.375 31.87109375 C-2.87773438 32.82943115 -3.38046875 33.78776855 -3.8984375 34.77514648 C-5.07395155 36.73559143 -5.07395155 36.73559143 -5 38 C3.25 38 11.5 38 20 38 C18.14375 34.2875 18.14375 34.2875 16.25 30.5 C13.5 25 10.75 19.5 8 14 C7.67 14 7.34 14 7 14 Z " fill="#343333" transform="translate(620,936)"/>
<path d="M0 0 C5.28 0 10.56 0 16 0 C16 17.16 16 34.32 16 52 C31.51 52 47.02 52 63 52 C63 55.96 63 59.92 63 64 C42.21 64 21.42 64 0 64 C0 42.88 0 21.76 0 0 Z " fill="#353334" transform="translate(517,936)"/>
<path d="M0 0 C5.28 0 10.56 0 16 0 C16 21.12 16 42.24 16 64 C10.72 64 5.44 64 0 64 C0 42.88 0 21.76 0 0 Z " fill="#343333" transform="translate(961,1083)"/>
<path d="M0 0 C5.28 0 10.56 0 16 0 C16 21.12 16 42.24 16 64 C10.72 64 5.44 64 0 64 C0 42.88 0 21.76 0 0 Z " fill="#353334" transform="translate(975,936)"/>
<path d="M0 0 C0.66 0 1.32 0 2 0 C3.13480527 3.60993172 3.10015767 6.9842327 3.0625 10.75 C3.05347656 11.92046875 3.04445313 13.0909375 3.03515625 14.296875 C3.02355469 15.18890625 3.01195312 16.0809375 3 17 C2.01 16.67 1.02 16.34 0 16 C0 10.72 0 5.44 0 0 Z " fill="#211F1F" transform="translate(1198,496)"/>
</svg>
